<svg xmlns="http://www.w3.org/2000/svg" data-name="Layer 2" viewBox="0 0 1226 1226"><g data-name="Layer 1"><path d="M1171.9 758.95A4254 4254 0 0 1 965.5 979.4c-70.19 69.88-139.48 134.06-206.91 192.85-75.05 65.43-183.74 71.09-264.59 17.12-.86-.57-1.72-1.14-2.57-1.74l96.16-166.53c1.12.08 2.27.14 3.41.2h.06c7.27.37 14.61.59 21.95.59 225.46 0 408.85-183.45 408.85-408.91 0-48.1-8.34-94.3-23.68-137.23h177.81c68.15 82.31 66.53 202.23-4.09 283.19ZM538.71 1015.13l-82.78 143.34c-62.71-55.6-126.87-115.59-191.73-180.08A4623 4623 0 0 1 54.62 755.71c-72.99-82.92-72.86-207.25.55-289.78a4935 4935 0 0 1 160.01-171.72c.61-.63 1.23-1.27 1.86-1.9l55.01 95.28q-.825 1.17-1.59 2.37v.04c-41.95 64.18-66.35 140.81-66.35 223.01 0 200.08 144.5 367.06 334.6 402.13ZM1133.68 427.93h.01s0-.05-.05-.05c-.68-.75-1.31-1.46-1.63-1.81-46.79-52.01-96.67-104.94-149.69-158.38-76.83-77.48-152.74-148.35-226.54-213.12-82.96-72.87-207.19-72.8-289.79.55-69.23 61.57-140.29 128.18-212.2 200.08l-3.68 3.68 51.59 89.35c75.07-88.15 186.76-144.12 311.32-144.12 158.89 0 296.86 91.07 364.51 223.76.43.86.88 1.72 1.29 2.58h157.13c-.41-.47-1.37-1.53-2.26-2.52Z"/><path d="M691.34 752.27H513.06c-12.6 0-24.58-5.28-33.21-14.46-8.6-9.15-16.26-19.18-22.84-29.95l-4.87-8.5-77.86-134.86-26.18-45.33-25.04-43.4-24.82-42.84C267.87 485.97 250.42 547.5 250.42 613c0 76.15 23.46 146.75 63.57 205.12 2.72 4.08 5.55 7.93 8.5 11.79 3.4 4.76 7.03 9.29 10.77 13.71 7.25 8.95 15.07 17.57 23.34 25.72v.11c1.81 1.81 3.63 3.63 5.44 5.21.45.57.91 1.02 1.36 1.36 1.93 1.7 3.85 3.51 5.78 5.33 2.29 2.17 4.58 4.21 7 6.12 2.05 1.88 4.19 3.65 6.35 5.4 2.2 1.97 4.4 3.72 6.71 5.48 2.27 1.7 4.53 3.4 6.8 5.1 2.27 1.81 4.65 3.51 7.03 5.21 2.04 1.47 4.08 2.83 6.23 4.31 3.74 2.61 7.48 5.1 11.45 7.37 3.17 2.15 6.34 4.08 9.63 5.89 1.47.91 2.95 1.81 4.42 2.49 3.51 2.15 7.14 4.08 10.88 6.01.68.34 1.47.79 2.27 1.13 4.42 2.27 8.84 4.42 13.37 6.46 6.12 2.95 12.35 5.67 18.7 8.05 2.38.91 4.65 1.81 6.91 2.61 5.44 2.15 10.99 4.08 16.66 5.78.91.23 1.7.57 2.61.79 3.4 1.13 6.8 2.15 10.31 2.95 4.87 1.47 9.75 2.72 14.62 3.74 2.15.45 4.19.91 6.35 1.36 6.69 1.59 13.49 2.83 20.4 3.74 2.04.45 4.19.68 6.35 1.02l.11-.11L587 932.81l26.18-45.33 78.17-135.21Z"/><path d="m694.5 475.57 89.06 154.44c6.29 10.91 7.71 23.93 4.07 35.99a183.4 183.4 0 0 1-14.53 34.75l-4.93 8.47-77.93 134.81-26.19 45.32-25.09 43.38-24.71 42.9c61.12-.19 123.14-15.81 179.88-48.53 65.97-38.04 115.41-93.63 145.93-157.54 2.18-4.39 4.1-8.77 5.96-13.25 2.43-5.32 4.54-10.73 6.5-16.18 4.13-10.75 7.69-21.83 10.62-33.07l.1-.06c.66-2.48 1.33-4.95 1.8-7.32.26-.68.43-1.29.5-1.86.51-2.52 1.12-5.09 1.73-7.67.73-3.07 1.36-6.07 1.8-9.12.6-2.71 1.07-5.45 1.5-8.19.6-2.89 1.03-5.67 1.4-8.55l1.02-8.44c.44-2.87.72-5.78 1.01-8.69.26-2.5.42-4.95.62-7.55.39-4.54.68-9.02.66-13.59.28-3.82.36-7.53.29-11.29.05-1.73.1-3.46-.05-5.08.11-4.12-.03-8.22-.23-12.42-.05-.76-.05-1.67-.15-2.53-.24-4.96-.59-9.87-1.09-14.81-.5-6.77-1.26-13.53-2.37-20.22-.4-2.51-.75-4.93-1.2-7.29-.85-5.79-1.96-11.56-3.32-17.32-.26-.9-.36-1.76-.61-2.65-.72-3.51-1.53-6.96-2.6-10.41-1.16-4.96-2.51-9.8-4.06-14.53-.68-2.09-1.31-4.08-1.99-6.18-1.97-6.59-4.28-13.1-6.95-19.54-.63-2-1.51-3.97-2.29-6.01l-.15-.04-45.49.07-52.35-.03-156.18-.17Z"/><path d="m453.23 610.8 89.55-154.16c6.33-10.89 16.91-18.61 29.18-21.45 12.23-2.84 24.76-4.43 37.37-4.71l9.8.06 155.72.42 52.34.13 50.11.15 49.51.06c-30.6-52.9-75.05-98.9-131.68-131.8-65.85-38.25-138.68-53.43-209.3-48.06-4.89.3-9.65.82-14.46 1.43-5.82.55-11.56 1.41-17.26 2.42a313 313 0 0 0-33.97 7.26l-.1-.06c-2.48.66-4.96 1.31-7.24 2.08-.72.11-1.34.27-1.86.49-2.44.81-4.97 1.57-7.51 2.32-3.02.89-5.94 1.84-8.81 2.98-2.65.83-5.26 1.79-7.85 2.78-2.8.92-5.43 1.94-8.11 3.05-2.61 1.11-5.22 2.21-7.83 3.32-2.71 1.05-5.37 2.25-8.04 3.46-2.3 1.02-4.5 2.1-6.85 3.23-4.13 1.92-8.16 3.9-12.12 6.2-3.46 1.66-6.71 3.44-9.93 5.37-1.52.82-3.05 1.64-4.38 2.57-3.63 1.96-7.11 4.12-10.66 6.39-.64.42-1.43.88-2.12 1.39-4.18 2.68-8.26 5.42-12.3 8.32-5.62 3.81-11.1 7.83-16.35 12.13-1.98 1.6-3.9 3.11-5.73 4.67-4.59 3.62-9.05 7.45-13.36 11.5-.65.67-1.34 1.19-2 1.85-2.69 2.37-5.28 4.8-7.73 7.44-3.72 3.47-7.25 7.06-10.58 10.76-1.47 1.63-2.89 3.17-4.36 4.8-4.73 4.98-9.22 10.24-13.48 15.76-1.42 1.54-2.69 3.29-4.07 4.98l.04.16 22.72 39.41 26.05 45.41 77.65 135.51Z"/><path d="M654.48 567.49c0-22.71-18.41-41.13-41.13-41.13s-41.13 18.41-41.13 41.13c0 14.64 7.67 27.46 19.19 34.75v75.47c0 12.11 9.82 21.93 21.93 21.93s21.94-9.82 21.94-21.93v-75.47c11.52-7.29 19.19-20.11 19.19-34.75Z"/></g></svg>